<?xml version="1.0" encoding="UTF-8"?>
<svg xmlns="http://www.w3.org/2000/svg" xmlns:xlink="http://www.w3.org/1999/xlink" width="50pt" height="50pt" viewBox="0 0 50 50" version="1.1">
<g id="surface6009090">
<path style=" stroke:none;fill-rule:nonzero;fill:rgb(18.039216%,80%,44.313725%);fill-opacity:1;" d="M 25 0.78125 C 11.640625 0.78125 0.78125 11.640625 0.78125 25 C 0.78125 29.101562 1.796875 33.125 3.789062 36.679688 L 1.71875 44.257812 C 1.367188 45.46875 1.71875 46.71875 2.617188 47.617188 C 3.515625 48.515625 4.765625 48.867188 5.976562 48.554688 L 13.867188 46.484375 C 17.304688 48.28125 21.132812 49.21875 25.039062 49.21875 C 38.398438 49.21875 49.257812 38.359375 49.257812 25 C 49.257812 18.515625 46.757812 12.460938 42.1875 7.890625 C 37.578125 3.320312 31.484375 0.78125 25 0.78125 Z M 25 3.125 C 30.859375 3.125 36.367188 5.390625 40.46875 9.53125 C 44.609375 13.671875 46.914062 19.179688 46.875 25 C 46.875 37.070312 37.070312 46.875 25 46.875 C 21.367188 46.875 17.734375 45.9375 14.53125 44.21875 C 14.375 44.140625 14.179688 44.0625 13.984375 44.0625 C 13.867188 44.0625 13.789062 44.0625 13.671875 44.101562 L 5.351562 46.289062 C 4.765625 46.445312 4.375 46.132812 4.21875 45.976562 C 4.0625 45.820312 3.75 45.429688 3.90625 44.84375 L 6.09375 36.796875 C 6.171875 36.484375 6.132812 36.171875 5.976562 35.898438 C 4.101562 32.617188 3.125 28.828125 3.125 25 C 3.125 12.929688 12.929688 3.125 25 3.125 Z M 25 6.640625 C 14.882812 6.640625 6.640625 14.84375 6.640625 25 C 6.640625 28.242188 7.5 31.40625 9.101562 34.179688 C 9.726562 35.273438 9.882812 36.5625 9.570312 37.773438 L 8.4375 41.875 L 12.8125 40.742188 C 13.203125 40.625 13.59375 40.585938 13.984375 40.585938 C 14.765625 40.585938 15.546875 40.78125 16.210938 41.171875 C 18.90625 42.578125 21.914062 43.359375 25 43.359375 C 35.117188 43.359375 43.359375 35.117188 43.359375 25 C 43.359375 20.078125 41.445312 15.46875 37.96875 11.992188 C 34.53125 8.554688 29.921875 6.640625 25 6.640625 Z M 16.835938 14.335938 L 17.929688 14.335938 C 18.359375 14.335938 18.789062 14.375 19.21875 15.3125 C 19.726562 16.445312 20.859375 19.296875 20.976562 19.570312 C 21.132812 19.84375 21.210938 20.195312 21.015625 20.585938 C 20.820312 20.976562 20.742188 21.210938 20.429688 21.5625 C 20.15625 21.914062 19.804688 22.304688 19.570312 22.578125 C 19.296875 22.851562 18.984375 23.164062 19.335938 23.75 C 19.6875 24.335938 20.820312 26.210938 22.539062 27.734375 C 24.726562 29.6875 26.601562 30.3125 27.1875 30.585938 C 27.773438 30.859375 28.085938 30.820312 28.4375 30.429688 C 28.789062 30.039062 29.882812 28.75 30.273438 28.164062 C 30.664062 27.578125 31.054688 27.695312 31.5625 27.890625 C 32.109375 28.085938 34.921875 29.492188 35.507812 29.765625 C 36.09375 30.039062 36.484375 30.195312 36.601562 30.429688 C 36.757812 30.742188 36.757812 31.875 36.289062 33.242188 C 35.820312 34.570312 33.476562 35.898438 32.382812 35.976562 C 31.328125 36.054688 30.351562 36.445312 25.46875 34.53125 C 19.609375 32.226562 15.898438 26.210938 15.625 25.820312 C 15.351562 25.429688 13.28125 22.695312 13.28125 19.84375 C 13.28125 16.992188 14.765625 15.625 15.3125 15.039062 C 15.859375 14.453125 16.445312 14.335938 16.835938 14.335938 Z M 16.835938 14.335938 "/>
</g>
</svg>
