<?xml version="1.0" encoding="UTF-8" standalone="no"?>
<svg
   xmlns:dc="http://purl.org/dc/elements/1.1/"
   xmlns:cc="http://creativecommons.org/ns#"
   xmlns:rdf="http://www.w3.org/1999/02/22-rdf-syntax-ns#"
   xmlns:svg="http://www.w3.org/2000/svg"
   xmlns="http://www.w3.org/2000/svg"
   xmlns:xlink="http://www.w3.org/1999/xlink"
   xmlns:sodipodi="http://sodipodi.sourceforge.net/DTD/sodipodi-0.dtd"
   xmlns:inkscape="http://www.inkscape.org/namespaces/inkscape"
   version="1.1"
   width="490.57385"
   height="466.29541"
   id="svg75"
   viewBox="0 0 490.57385 466.29541"
   sodipodi:docname="logo.svg"
   inkscape:version="0.92.5 (2060ec1f9f, 2020-04-08)">
  <metadata
     id="metadata79">
    <rdf:RDF>
      <cc:Work
         rdf:about="">
        <dc:format>image/svg+xml</dc:format>
        <dc:type
           rdf:resource="http://purl.org/dc/dcmitype/StillImage" />
        <dc:title></dc:title>
      </cc:Work>
    </rdf:RDF>
  </metadata>
  <sodipodi:namedview
     pagecolor="#ffffff"
     bordercolor="#666666"
     borderopacity="1"
     objecttolerance="10"
     gridtolerance="10"
     guidetolerance="10"
     inkscape:pageopacity="0"
     inkscape:pageshadow="2"
     inkscape:window-width="1294"
     inkscape:window-height="704"
     id="namedview77"
     showgrid="false"
     inkscape:snap-midpoints="false"
     inkscape:zoom="0.79286959"
     inkscape:cx="200.84396"
     inkscape:cy="370.63762"
     inkscape:window-x="72"
     inkscape:window-y="27"
     inkscape:window-maximized="1"
     inkscape:current-layer="svg75" />
  <path
     d="m 587.48429,184.48123 c 0.2999,1.313 0.3374,1.9505 0.3687,2.3692 0.0313,0.4188 0.0564,0.6187 0.0564,0.8499 0,0.2311 -0.0251,0.4935 -0.0376,0.6247 -0.0125,0.1312 -0.0125,0.1312 -0.0125,0.6191"
     style="fill:#0000ff;fill-rule:evenodd;stroke:#00ff00;stroke-width:0.56690001;stroke-linecap:butt;stroke-linejoin:miter;stroke-dasharray:none"
     id="path18"
     inkscape:connector-curvature="0" />
  <path
     d="m 2479.845,204.73223 c -0.1219,-0.0953 -0.1611,-0.1539 -0.262,-0.2772 l -1.9315,-3.4688 -1.5375,-3.1688 -1.3873,-3.3753 -0.9003,-2.6438 -0.2625,-0.4686"
     style="fill:#0000ff;fill-rule:evenodd;stroke:#00ff00;stroke-width:0.56690001;stroke-linecap:butt;stroke-linejoin:miter;stroke-dasharray:none"
     id="path24"
     inkscape:connector-curvature="0" />
  <path
     d="m 586.69309,184.07873 0.7912,0.4025 0.0439,0.1927"
     style="fill:#0000ff;fill-rule:evenodd;stroke:#00ff00;stroke-width:0.56690001;stroke-linecap:butt;stroke-linejoin:miter;stroke-dasharray:none"
     id="path30"
     inkscape:connector-curvature="0" />
  <defs
     id="defs40">
    <linearGradient
       id="grad1">
      <stop
         offset="0%"
         stop-color="#333333"
         stop-opacity="1.0000"
         id="stop34" />
      <stop
         offset="100%"
         stop-color="#e6e6e6"
         stop-opacity="1.0000"
         id="stop36" />
    </linearGradient>
    <linearGradient
       xlink:href="#grad1"
       id="grad2"
       x1="53.801773"
       y1="382.31653"
       x2="53.801773"
       y2="728.21692"
       gradientTransform="matrix(0.92770638,0,0,1.0779273,44.543678,-318.66947)"
       gradientUnits="userSpaceOnUse" />
  </defs>
  <defs
     id="defs50">
    <linearGradient
       id="grad3">
      <stop
         offset="0%"
         stop-color="#000000"
         stop-opacity="1.0000"
         id="stop44" />
      <stop
         offset="100%"
         stop-color="#cccccc"
         stop-opacity="1.0000"
         id="stop46" />
    </linearGradient>
    <linearGradient
       xlink:href="#grad3"
       id="grad4"
       x1="308.93396"
       y1="81.491837"
       x2="308.93396"
       y2="394.42999"
       gradientTransform="matrix(0.92577273,0,0,1.0801787,-174.84897,22.47933)"
       gradientUnits="userSpaceOnUse" />
  </defs>
  <defs
     id="defs63">
    <linearGradient
       id="grad5"
       gradientTransform="matrix(-0.05211384,-0.55032097,1.8009711,-0.17054685,-291.70117,960.28733)"
       x1="851.5448"
       y1="229.96809"
       x2="1042.7242"
       y2="229.96809"
       gradientUnits="userSpaceOnUse">
      <stop
         offset="0%"
         stop-color="#999999"
         stop-opacity="1.0000"
         id="stop58" />
      <stop
         offset="100%"
         stop-color="#ffffff"
         stop-opacity="1.0000"
         id="stop60" />
    </linearGradient>
  </defs>
  <path
     d="m 513.92868,184.78093 c -1.4675,-2.9665 -1.4902,-3.0039 -0.0686,-0.1123"
     style="fill:none;stroke:#000000;stroke-width:0.56690001;stroke-linecap:butt;stroke-linejoin:miter;stroke-dasharray:none"
     id="path22"
     inkscape:connector-curvature="0" />
  <path
     d="m 513.86008,184.66863 c 1.0777,-1.0562 0,0 0,0 z"
     style="fill:#0000ff;fill-rule:evenodd;stroke:#00ff00;stroke-width:0.56690001;stroke-linecap:butt;stroke-linejoin:miter;stroke-dasharray:none"
     id="path28"
     inkscape:connector-curvature="0" />
  <path
     d="m 101.19888,123.70293 27.378,0.5557 26.4591,-2.4067 23.7903,-3.4418 26.7632,-5.3443 21.65,-6.4299 17.0106,-6.7689 13.0841,-6.1124 21.0638,10.4854 17.956,6.9881 21.6317,6.5713 20.4499,4.5854 21.936,3.6347 24.6441,2.7078 26.6198,1.7669 3.3389,4.2382 0.0921,43.9141 -0.868,30.8922 -0.9586,23.2857 -3.1632,23.4858 -4.6502,24.4374 -5.2897,19.7636 -4.9609,15.5999 -5.1414,12.4068 -7.9584,18.7275 -11.4111,20.1299 -15.8501,22.0016 -17.2826,20.2563 -16.9389,15.3568 -20.3609,15.2864 -16.8399,10.4523 -15.0795,8.0347 -18.4867,7.2294 -18.9383,-6.7624 -20.0469,-12.4275 -21.2147,-15.1493 -20.3872,-19.7943 -18.1371,-22.201 -14.7456,-20.6607 -14.8412,-28.0216 -8.1059,-22.4887 -6.4682,-18.7756 -4.7472,-19.2312 -4.619702,-25.6065 -2.0142,-21.3833 -0.8069,-20.6235 -0.0139,-23.5502 0.549,-27.2187 0.7122,-35.3114 z"
     style="fill:url(#grad2);stroke:#000000;stroke-width:0.56690001;stroke-linecap:butt;stroke-linejoin:miter;stroke-dasharray:none"
     id="path42"
     inkscape:connector-curvature="0" />
  <path
     d="m 112.38333,138.28943 13.929,0.5275 20.074,-1.064 22.0537,-2.2505 19.8836,-3.7668 19.6447,-4.0173 17.2149,-4.8019 15.5138,-5.3279 16.7658,-6.7738 15.5005,7.4287 16.4987,6.4681 19.6858,6.0413 19.7015,5.3064 19.7353,3.59 20.9674,3.1236 18.5534,1.6032 12.4668,0.2531 -0.9669,35.7957 -1.3122,28.6756 -1.9558,24.2464 -2.6359,21.5337 -2.9902,14.9037 -4.0526,19.0516 -6.0026,18.7673 -6.1881,15.8197 -8.6722,17.7322 -10.3783,17.4518 -10.3288,14.9996 -11.0376,13.7594 -10.7335,10.821 -13.7064,12.7234 -11.1875,9.0946 -11.6773,9.0856 -11.8914,7.608 -10.6247,5.4271 -12.8392,6.1174 -2.4397,-0.2952 -9.4543,-4.1166 -13.2958,-7.6297 -14.4637,-10.3514 -14.8941,-13.3039 -15.6068,-14.2993 -14.35,-15.991 -8.7767,-13.4254 -10.9181,-16.4117 -5.8938,-10.9137 -7.0113,-16.0876 -5.3309,-14.5822 -5.0416,-16.7829 -3.8835,-13.5718 -3.4904,-20.9219 -1.7036,-12.5457 -2.1132,-16.4787 -0.4458,-14.2373 -0.7261,-12.5259 -0.1145,-30.6664 0.1608,-20.1124 z"
     style="fill:url(#grad4);stroke:#000000;stroke-width:0.56690001;stroke-linecap:butt;stroke-linejoin:miter;stroke-dasharray:none"
     id="path52"
     inkscape:connector-curvature="0" />
  <text
     x="166.07225"
     y="314.48059"
     id="text56">
    <tspan
       font-size="206.5000"
       id="tspan54"
       style="font-style:normal;font-variant:normal;font-weight:normal;font-stretch:normal;font-size:253.33332825px;font-family:Uroob;-inkscape-font-specification:Uroob;fill:#ffffff">JJ</tspan>
  </text>
  <path
     d="m 417.68855,373.98595 c -1.70216,14.61698 -3.40432,29.23395 -5.10659,43.85083 -117.78947,30.72851 -221.96051,-55.47827 -339.750092,-24.74975 1.70226,-14.61699 3.40443,-29.23386 5.10659,-43.85084 117.789482,-30.7285 221.960622,55.47827 339.750092,24.74976 z"
     style="fill:url(#grad5);stroke:#000000;stroke-width:0.56690001;stroke-linecap:butt;stroke-linejoin:miter;stroke-dasharray:none"
     id="path65"
     inkscape:connector-curvature="0" />
  <g
     aria-label="aço inox"
     transform="rotate(5.773243,1650.7034,-1444.8012)"
     id="text73">
    <path
       d="m 392.11411,520.6377 q -1.91016,0 -2.8711,-1.00782 -0.96094,-1.00781 -0.96094,-2.76562 0,-1.96875 1.28907,-3.02344 1.30078,-1.05469 4.18359,-1.125 l 2.84766,-0.0469 v -0.69141 q 0,-1.54688 -0.65625,-2.21484 -0.65625,-0.66797 -2.0625,-0.66797 -1.41797,0 -2.0625,0.48047 -0.64453,0.48046 -0.77344,1.53515 l -2.20313,-0.19922 q 0.53907,-3.42187 5.08594,-3.42187 2.39063,0 3.59766,1.10156 1.20703,1.08984 1.20703,3.16406 v 5.46094 q 0,0.9375 0.24609,1.41797 0.2461,0.46875 0.9375,0.46875 0.30469,0 0.69141,-0.082 v 1.3125 q -0.79688,0.1875 -1.62891,0.1875 -1.17187,0 -1.71093,-0.60938 -0.52735,-0.62109 -0.59766,-1.93359 h -0.0703 q -0.8086,1.45312 -1.88672,2.0625 -1.06641,0.59766 -2.60156,0.59766 z m 0.48046,-1.58204 q 1.16016,0 2.0625,-0.52734 0.90235,-0.52734 1.41797,-1.44141 0.52735,-0.92578 0.52735,-1.89843 v -1.04297 l -2.3086,0.0469 q -1.48828,0.0234 -2.26172,0.30469 -0.76171,0.28125 -1.17187,0.86719 -0.41016,0.58594 -0.41016,1.53515 0,1.03125 0.55078,1.59375 0.5625,0.5625 1.59375,0.5625 z"
       style="font-size:24px;font-family:Arial;fill:#000000"
       id="path81"
       inkscape:connector-curvature="0" />
    <path
       d="m 403.83286,514.00488 q 0,2.53125 0.79687,3.75 0.79688,1.21875 2.40234,1.21875 1.125,0 1.875,-0.60937 0.76172,-0.60938 0.9375,-1.875 l 2.13282,0.14062 q -0.2461,1.82813 -1.5586,2.91797 -1.3125,1.08985 -3.32812,1.08985 -2.66016,0 -4.06641,-1.67579 -1.39453,-1.6875 -1.39453,-4.91015 0,-3.19922 1.40625,-4.875 1.40625,-1.6875 4.03125,-1.6875 1.94531,0 3.22266,1.00781 1.28906,1.00781 1.61718,2.77734 l -2.16796,0.16407 q -0.16407,-1.05469 -0.83204,-1.67578 -0.66796,-0.6211 -1.89843,-0.6211 -1.67578,0 -2.42578,1.11328 -0.75,1.11328 -0.75,3.75 z m 5.57812,9.36328 q 0,2.1211 -3.21094,2.1211 -0.66797,0 -1.05468,-0.0469 v -1.14843 q 0.57421,0.0703 1.00781,0.0703 1.72265,0 1.72265,-0.94922 0,-0.90234 -1.55859,-0.90234 -0.50391,0 -0.66797,0.0234 l 0.76172,-2.13281 h 1.25391 l -0.45703,1.17188 q 1.10156,0.0352 1.65234,0.5039 0.55078,0.48047 0.55078,1.28906 z"
       style="font-size:24px;font-family:Arial;fill:#000000"
       id="path83"
       inkscape:connector-curvature="0" />
    <path
       d="m 424.95004,514.05176 q 0,3.32812 -1.46484,4.95703 -1.46484,1.62891 -4.25391,1.62891 -2.77734,0 -4.19531,-1.6875 -1.41797,-1.69922 -1.41797,-4.89844 0,-6.5625 5.6836,-6.5625 2.90625,0 4.27734,1.60547 1.37109,1.59375 1.37109,4.95703 z m -2.21484,0 q 0,-2.625 -0.78516,-3.8086 -0.77343,-1.19531 -2.61328,-1.19531 -1.85156,0 -2.68359,1.21875 -0.82031,1.20703 -0.82031,3.78516 0,2.50781 0.80859,3.77344 0.82031,1.2539 2.56641,1.2539 1.89843,0 2.70703,-1.21875 0.82031,-1.21875 0.82031,-3.80859 z"
       style="font-size:24px;font-family:Arial;fill:#000000"
       id="path85"
       inkscape:connector-curvature="0" />
    <path
       d="m 434.23129,505.02832 v -2.01562 h 2.10938 v 2.01562 z m 0,15.375 v -12.67969 h 2.10938 v 12.67969 z"
       style="font-size:24px;font-family:Arial;fill:#000000"
       id="path87"
       inkscape:connector-curvature="0" />
    <path
       d="m 447.62582,520.40332 v -8.03906 q 0,-1.25391 -0.24609,-1.94531 -0.24609,-0.69141 -0.78516,-0.9961 -0.53906,-0.30469 -1.58203,-0.30469 -1.52343,0 -2.40234,1.04297 -0.87891,1.04297 -0.87891,2.89453 v 7.34766 h -2.10937 v -9.97266 q 0,-2.21484 -0.0703,-2.70703 h 1.99218 q 0.0117,0.0586 0.0234,0.31641 0.0117,0.25781 0.0234,0.59766 0.0234,0.32812 0.0469,1.2539 h 0.0352 q 0.72656,-1.3125 1.67578,-1.85156 0.96094,-0.55078 2.37891,-0.55078 2.08593,0 3.04687,1.04297 0.97266,1.03125 0.97266,3.42187 v 8.44922 z"
       style="font-size:24px;font-family:Arial;fill:#000000"
       id="path89"
       inkscape:connector-curvature="0" />
    <path
       d="m 463.64536,514.05176 q 0,3.32812 -1.46485,4.95703 -1.46484,1.62891 -4.2539,1.62891 -2.77735,0 -4.19532,-1.6875 -1.41797,-1.69922 -1.41797,-4.89844 0,-6.5625 5.6836,-6.5625 2.90625,0 4.27734,1.60547 1.3711,1.59375 1.3711,4.95703 z m -2.21485,0 q 0,-2.625 -0.78515,-3.8086 -0.77344,-1.19531 -2.61329,-1.19531 -1.85156,0 -2.68359,1.21875 -0.82031,1.20703 -0.82031,3.78516 0,2.50781 0.80859,3.77344 0.82031,1.2539 2.56641,1.2539 1.89844,0 2.70703,-1.21875 0.82031,-1.21875 0.82031,-3.80859 z"
       style="font-size:24px;font-family:Arial;fill:#000000"
       id="path91"
       inkscape:connector-curvature="0" />
    <path
       d="m 474.03989,520.40332 -3.41016,-5.20312 -3.43359,5.20312 h -2.27344 l 4.51172,-6.51562 -4.30078,-6.16407 h 2.33203 l 3.16406,4.9336 3.14063,-4.9336 h 2.35546 l -4.30078,6.14063 4.57032,6.53906 z"
       style="font-size:24px;font-family:Arial;fill:#000000"
       id="path93"
       inkscape:connector-curvature="0" />
    <path
       id="path96"
       style="font-size:24px;font-family:Arial;fill:#000000"
       d="m 474.03989,520.40332 -3.41016,-5.20312 -3.43359,5.20312 h -2.27344 l 4.51172,-6.51562 -4.30078,-6.16407 h 2.33203 l 3.16406,4.9336 3.14063,-4.9336 h 2.35546 l -4.30078,6.14063 4.57032,6.53906 z"
       inkscape:connector-curvature="0" />
    <path
       id="path98"
       style="font-size:24px;font-family:Arial;fill:#000000"
       d="m 434.23129,505.02832 v -2.01562 h 2.10938 v 2.01562 z m 0,15.375 v -12.67969 h 2.10938 v 12.67969 z"
       inkscape:connector-curvature="0" />
    <path
       id="path100"
       style="font-size:24px;font-family:Arial;fill:#000000"
       d="m 463.64536,514.05176 q 0,3.32812 -1.46485,4.95703 -1.46484,1.62891 -4.2539,1.62891 -2.77735,0 -4.19532,-1.6875 -1.41797,-1.69922 -1.41797,-4.89844 0,-6.5625 5.6836,-6.5625 2.90625,0 4.27734,1.60547 1.3711,1.59375 1.3711,4.95703 z m -2.21485,0 q 0,-2.625 -0.78515,-3.8086 -0.77344,-1.19531 -2.61329,-1.19531 -1.85156,0 -2.68359,1.21875 -0.82031,1.20703 -0.82031,3.78516 0,2.50781 0.80859,3.77344 0.82031,1.2539 2.56641,1.2539 1.89844,0 2.70703,-1.21875 0.82031,-1.21875 0.82031,-3.80859 z"
       inkscape:connector-curvature="0" />
    <path
       d="m 434.23129,505.02832 v -2.01562 h 2.10938 v 2.01562 z m 0,15.375 v -12.67969 h 2.10938 v 12.67969 z"
       style="font-size:24px;font-family:Arial;fill:#000000"
       id="path102"
       inkscape:connector-curvature="0" />
    <path
       id="path104"
       style="font-size:24px;font-family:Arial;fill:#000000"
       d="m 447.62582,520.40332 v -8.03906 q 0,-1.25391 -0.24609,-1.94531 -0.24609,-0.69141 -0.78516,-0.9961 -0.53906,-0.30469 -1.58203,-0.30469 -1.52343,0 -2.40234,1.04297 -0.87891,1.04297 -0.87891,2.89453 v 7.34766 h -2.10937 v -9.97266 q 0,-2.21484 -0.0703,-2.70703 h 1.99218 q 0.0117,0.0586 0.0234,0.31641 0.0117,0.25781 0.0234,0.59766 0.0234,0.32812 0.0469,1.2539 h 0.0352 q 0.72656,-1.3125 1.67578,-1.85156 0.96094,-0.55078 2.37891,-0.55078 2.08593,0 3.04687,1.04297 0.97266,1.03125 0.97266,3.42187 v 8.44922 z"
       inkscape:connector-curvature="0" />
    <path
       id="path106"
       style="font-size:24px;font-family:Arial;fill:#000000"
       d="m 474.03989,520.40332 -3.41016,-5.20312 -3.43359,5.20312 h -2.27344 l 4.51172,-6.51562 -4.30078,-6.16407 h 2.33203 l 3.16406,4.9336 3.14063,-4.9336 h 2.35546 l -4.30078,6.14063 4.57032,6.53906 z"
       inkscape:connector-curvature="0" />
    <path
       d="m 463.64536,514.05176 q 0,3.32812 -1.46485,4.95703 -1.46484,1.62891 -4.2539,1.62891 -2.77735,0 -4.19532,-1.6875 -1.41797,-1.69922 -1.41797,-4.89844 0,-6.5625 5.6836,-6.5625 2.90625,0 4.27734,1.60547 1.3711,1.59375 1.3711,4.95703 z m -2.21485,0 q 0,-2.625 -0.78515,-3.8086 -0.77344,-1.19531 -2.61329,-1.19531 -1.85156,0 -2.68359,1.21875 -0.82031,1.20703 -0.82031,3.78516 0,2.50781 0.80859,3.77344 0.82031,1.2539 2.56641,1.2539 1.89844,0 2.70703,-1.21875 0.82031,-1.21875 0.82031,-3.80859 z"
       style="font-size:24px;font-family:Arial;fill:#000000"
       id="path108"
       inkscape:connector-curvature="0" />
    <path
       id="path110"
       style="font-size:24px;font-family:Arial;fill:#000000"
       d="m 463.64536,514.05176 q 0,3.32812 -1.46485,4.95703 -1.46484,1.62891 -4.2539,1.62891 -2.77735,0 -4.19532,-1.6875 -1.41797,-1.69922 -1.41797,-4.89844 0,-6.5625 5.6836,-6.5625 2.90625,0 4.27734,1.60547 1.3711,1.59375 1.3711,4.95703 z m -2.21485,0 q 0,-2.625 -0.78515,-3.8086 -0.77344,-1.19531 -2.61329,-1.19531 -1.85156,0 -2.68359,1.21875 -0.82031,1.20703 -0.82031,3.78516 0,2.50781 0.80859,3.77344 0.82031,1.2539 2.56641,1.2539 1.89844,0 2.70703,-1.21875 0.82031,-1.21875 0.82031,-3.80859 z"
       inkscape:connector-curvature="0" />
    <path
       id="path112"
       style="font-size:24px;font-family:Arial;fill:#000000"
       d="m 434.23129,505.02832 v -2.01562 h 2.10938 v 2.01562 z m 0,15.375 v -12.67969 h 2.10938 v 12.67969 z"
       inkscape:connector-curvature="0" />
    <path
       d="m 463.64536,514.05176 q 0,3.32812 -1.46485,4.95703 -1.46484,1.62891 -4.2539,1.62891 -2.77735,0 -4.19532,-1.6875 -1.41797,-1.69922 -1.41797,-4.89844 0,-6.5625 5.6836,-6.5625 2.90625,0 4.27734,1.60547 1.3711,1.59375 1.3711,4.95703 z m -2.21485,0 q 0,-2.625 -0.78515,-3.8086 -0.77344,-1.19531 -2.61329,-1.19531 -1.85156,0 -2.68359,1.21875 -0.82031,1.20703 -0.82031,3.78516 0,2.50781 0.80859,3.77344 0.82031,1.2539 2.56641,1.2539 1.89844,0 2.70703,-1.21875 0.82031,-1.21875 0.82031,-3.80859 z"
       style="font-size:24px;font-family:Arial;fill:#000000"
       id="path114"
       inkscape:connector-curvature="0" />
    <path
       id="path116"
       style="font-size:24px;font-family:Arial;fill:#000000"
       d="m 474.03989,520.40332 -3.41016,-5.20312 -3.43359,5.20312 h -2.27344 l 4.51172,-6.51562 -4.30078,-6.16407 h 2.33203 l 3.16406,4.9336 3.14063,-4.9336 h 2.35546 l -4.30078,6.14063 4.57032,6.53906 z"
       inkscape:connector-curvature="0" />
    <path
       id="path118"
       style="font-size:24px;font-family:Arial;fill:#000000"
       d="m 403.83286,514.00488 q 0,2.53125 0.79687,3.75 0.79688,1.21875 2.40234,1.21875 1.125,0 1.875,-0.60937 0.76172,-0.60938 0.9375,-1.875 l 2.13282,0.14062 q -0.2461,1.82813 -1.5586,2.91797 -1.3125,1.08985 -3.32812,1.08985 -2.66016,0 -4.06641,-1.67579 -1.39453,-1.6875 -1.39453,-4.91015 0,-3.19922 1.40625,-4.875 1.40625,-1.6875 4.03125,-1.6875 1.94531,0 3.22266,1.00781 1.28906,1.00781 1.61718,2.77734 l -2.16796,0.16407 q -0.16407,-1.05469 -0.83204,-1.67578 -0.66796,-0.6211 -1.89843,-0.6211 -1.67578,0 -2.42578,1.11328 -0.75,1.11328 -0.75,3.75 z m 5.57812,9.36328 q 0,2.1211 -3.21094,2.1211 -0.66797,0 -1.05468,-0.0469 v -1.14843 q 0.57421,0.0703 1.00781,0.0703 1.72265,0 1.72265,-0.94922 0,-0.90234 -1.55859,-0.90234 -0.50391,0 -0.66797,0.0234 l 0.76172,-2.13281 h 1.25391 l -0.45703,1.17188 q 1.10156,0.0352 1.65234,0.5039 0.55078,0.48047 0.55078,1.28906 z"
       inkscape:connector-curvature="0" />
    <path
       d="m 474.03989,520.40332 -3.41016,-5.20312 -3.43359,5.20312 h -2.27344 l 4.51172,-6.51562 -4.30078,-6.16407 h 2.33203 l 3.16406,4.9336 3.14063,-4.9336 h 2.35546 l -4.30078,6.14063 4.57032,6.53906 z"
       style="font-size:24px;font-family:Arial;fill:#000000"
       id="path120"
       inkscape:connector-curvature="0" />
    <path
       id="path122"
       style="font-size:24px;font-family:Arial;fill:#000000"
       d="m 474.03989,520.40332 -3.41016,-5.20312 -3.43359,5.20312 h -2.27344 l 4.51172,-6.51562 -4.30078,-6.16407 h 2.33203 l 3.16406,4.9336 3.14063,-4.9336 h 2.35546 l -4.30078,6.14063 4.57032,6.53906 z"
       inkscape:connector-curvature="0" />
    <path
       id="path124"
       style="font-size:24px;font-family:Arial;fill:#000000"
       d="m 434.23129,505.02832 v -2.01562 h 2.10938 v 2.01562 z m 0,15.375 v -12.67969 h 2.10938 v 12.67969 z"
       inkscape:connector-curvature="0" />
    <path
       id="path126"
       style="font-size:24px;font-family:Arial;fill:#000000"
       d="m 424.95004,514.05176 q 0,3.32812 -1.46484,4.95703 -1.46484,1.62891 -4.25391,1.62891 -2.77734,0 -4.19531,-1.6875 -1.41797,-1.69922 -1.41797,-4.89844 0,-6.5625 5.6836,-6.5625 2.90625,0 4.27734,1.60547 1.37109,1.59375 1.37109,4.95703 z m -2.21484,0 q 0,-2.625 -0.78516,-3.8086 -0.77343,-1.19531 -2.61328,-1.19531 -1.85156,0 -2.68359,1.21875 -0.82031,1.20703 -0.82031,3.78516 0,2.50781 0.80859,3.77344 0.82031,1.2539 2.56641,1.2539 1.89843,0 2.70703,-1.21875 0.82031,-1.21875 0.82031,-3.80859 z"
       inkscape:connector-curvature="0" />
    <path
       id="path128"
       style="font-size:24px;font-family:Arial;fill:#000000"
       d="m 434.23129,505.02832 v -2.01562 h 2.10938 v 2.01562 z m 0,15.375 v -12.67969 h 2.10938 v 12.67969 z"
       inkscape:connector-curvature="0" />
    <path
       d="m 434.23129,505.02832 v -2.01562 h 2.10938 v 2.01562 z m 0,15.375 v -12.67969 h 2.10938 v 12.67969 z"
       style="font-size:24px;font-family:Arial;fill:#000000"
       id="path130"
       inkscape:connector-curvature="0" />
    <path
       id="path132"
       style="font-size:24px;font-family:Arial;fill:#000000"
       d="m 474.03989,520.40332 -3.41016,-5.20312 -3.43359,5.20312 h -2.27344 l 4.51172,-6.51562 -4.30078,-6.16407 h 2.33203 l 3.16406,4.9336 3.14063,-4.9336 h 2.35546 l -4.30078,6.14063 4.57032,6.53906 z"
       inkscape:connector-curvature="0" />
    <path
       id="path134"
       style="font-size:24px;font-family:Arial;fill:#000000"
       d="m 434.23129,505.02832 v -2.01562 h 2.10938 v 2.01562 z m 0,15.375 v -12.67969 h 2.10938 v 12.67969 z"
       inkscape:connector-curvature="0" />
    <path
       id="path136"
       style="font-size:24px;font-family:Arial;fill:#000000"
       d="m 424.95004,514.05176 q 0,3.32812 -1.46484,4.95703 -1.46484,1.62891 -4.25391,1.62891 -2.77734,0 -4.19531,-1.6875 -1.41797,-1.69922 -1.41797,-4.89844 0,-6.5625 5.6836,-6.5625 2.90625,0 4.27734,1.60547 1.37109,1.59375 1.37109,4.95703 z m -2.21484,0 q 0,-2.625 -0.78516,-3.8086 -0.77343,-1.19531 -2.61328,-1.19531 -1.85156,0 -2.68359,1.21875 -0.82031,1.20703 -0.82031,3.78516 0,2.50781 0.80859,3.77344 0.82031,1.2539 2.56641,1.2539 1.89843,0 2.70703,-1.21875 0.82031,-1.21875 0.82031,-3.80859 z"
       inkscape:connector-curvature="0" />
    <path
       id="path138"
       style="font-size:24px;font-family:Arial;fill:#000000"
       d="m 434.23129,505.02832 v -2.01562 h 2.10938 v 2.01562 z m 0,15.375 v -12.67969 h 2.10938 v 12.67969 z"
       inkscape:connector-curvature="0" />
    <path
       id="path140"
       style="font-size:24px;font-family:Arial;fill:#000000"
       d="m 463.64536,514.05176 q 0,3.32812 -1.46485,4.95703 -1.46484,1.62891 -4.2539,1.62891 -2.77735,0 -4.19532,-1.6875 -1.41797,-1.69922 -1.41797,-4.89844 0,-6.5625 5.6836,-6.5625 2.90625,0 4.27734,1.60547 1.3711,1.59375 1.3711,4.95703 z m -2.21485,0 q 0,-2.625 -0.78515,-3.8086 -0.77344,-1.19531 -2.61329,-1.19531 -1.85156,0 -2.68359,1.21875 -0.82031,1.20703 -0.82031,3.78516 0,2.50781 0.80859,3.77344 0.82031,1.2539 2.56641,1.2539 1.89844,0 2.70703,-1.21875 0.82031,-1.21875 0.82031,-3.80859 z"
       inkscape:connector-curvature="0" />
    <path
       d="m 424.95004,514.05176 q 0,3.32812 -1.46484,4.95703 -1.46484,1.62891 -4.25391,1.62891 -2.77734,0 -4.19531,-1.6875 -1.41797,-1.69922 -1.41797,-4.89844 0,-6.5625 5.6836,-6.5625 2.90625,0 4.27734,1.60547 1.37109,1.59375 1.37109,4.95703 z m -2.21484,0 q 0,-2.625 -0.78516,-3.8086 -0.77343,-1.19531 -2.61328,-1.19531 -1.85156,0 -2.68359,1.21875 -0.82031,1.20703 -0.82031,3.78516 0,2.50781 0.80859,3.77344 0.82031,1.2539 2.56641,1.2539 1.89843,0 2.70703,-1.21875 0.82031,-1.21875 0.82031,-3.80859 z"
       style="font-size:24px;font-family:Arial;fill:#000000"
       id="path142"
       inkscape:connector-curvature="0" />
    <path
       d="m 434.23129,505.02832 v -2.01562 h 2.10938 v 2.01562 z m 0,15.375 v -12.67969 h 2.10938 v 12.67969 z"
       style="font-size:24px;font-family:Arial;fill:#000000"
       id="path144"
       inkscape:connector-curvature="0" />
    <path
       d="m 434.23129,505.02832 v -2.01562 h 2.10938 v 2.01562 z m 0,15.375 v -12.67969 h 2.10938 v 12.67969 z"
       style="font-size:24px;font-family:Arial;fill:#000000"
       id="path146"
       inkscape:connector-curvature="0" />
    <path
       d="m 434.23129,505.02832 v -2.01562 h 2.10938 v 2.01562 z m 0,15.375 v -12.67969 h 2.10938 v 12.67969 z"
       style="font-size:24px;font-family:Arial;fill:#000000"
       id="path148"
       inkscape:connector-curvature="0" />
    <path
       id="path150"
       style="font-size:24px;font-family:Arial;fill:#000000"
       d="m 434.23129,505.02832 v -2.01562 h 2.10938 v 2.01562 z m 0,15.375 v -12.67969 h 2.10938 v 12.67969 z"
       inkscape:connector-curvature="0" />
    <path
       id="path152"
       style="font-size:24px;font-family:Arial;fill:#000000"
       d="m 434.23129,505.02832 v -2.01562 h 2.10938 v 2.01562 z m 0,15.375 v -12.67969 h 2.10938 v 12.67969 z"
       inkscape:connector-curvature="0" />
    <path
       id="path154"
       style="font-size:24px;font-family:Arial;fill:#000000"
       d="m 392.11411,520.6377 q -1.91016,0 -2.8711,-1.00782 -0.96094,-1.00781 -0.96094,-2.76562 0,-1.96875 1.28907,-3.02344 1.30078,-1.05469 4.18359,-1.125 l 2.84766,-0.0469 v -0.69141 q 0,-1.54688 -0.65625,-2.21484 -0.65625,-0.66797 -2.0625,-0.66797 -1.41797,0 -2.0625,0.48047 -0.64453,0.48046 -0.77344,1.53515 l -2.20313,-0.19922 q 0.53907,-3.42187 5.08594,-3.42187 2.39063,0 3.59766,1.10156 1.20703,1.08984 1.20703,3.16406 v 5.46094 q 0,0.9375 0.24609,1.41797 0.2461,0.46875 0.9375,0.46875 0.30469,0 0.69141,-0.082 v 1.3125 q -0.79688,0.1875 -1.62891,0.1875 -1.17187,0 -1.71093,-0.60938 -0.52735,-0.62109 -0.59766,-1.93359 h -0.0703 q -0.8086,1.45312 -1.88672,2.0625 -1.06641,0.59766 -2.60156,0.59766 z m 0.48046,-1.58204 q 1.16016,0 2.0625,-0.52734 0.90235,-0.52734 1.41797,-1.44141 0.52735,-0.92578 0.52735,-1.89843 v -1.04297 l -2.3086,0.0469 q -1.48828,0.0234 -2.26172,0.30469 -0.76171,0.28125 -1.17187,0.86719 -0.41016,0.58594 -0.41016,1.53515 0,1.03125 0.55078,1.59375 0.5625,0.5625 1.59375,0.5625 z"
       inkscape:connector-curvature="0" />
    <path
       id="path156"
       style="font-size:24px;font-family:Arial;fill:#000000"
       d="m 403.83286,514.00488 q 0,2.53125 0.79687,3.75 0.79688,1.21875 2.40234,1.21875 1.125,0 1.875,-0.60937 0.76172,-0.60938 0.9375,-1.875 l 2.13282,0.14062 q -0.2461,1.82813 -1.5586,2.91797 -1.3125,1.08985 -3.32812,1.08985 -2.66016,0 -4.06641,-1.67579 -1.39453,-1.6875 -1.39453,-4.91015 0,-3.19922 1.40625,-4.875 1.40625,-1.6875 4.03125,-1.6875 1.94531,0 3.22266,1.00781 1.28906,1.00781 1.61718,2.77734 l -2.16796,0.16407 q -0.16407,-1.05469 -0.83204,-1.67578 -0.66796,-0.6211 -1.89843,-0.6211 -1.67578,0 -2.42578,1.11328 -0.75,1.11328 -0.75,3.75 z m 5.57812,9.36328 q 0,2.1211 -3.21094,2.1211 -0.66797,0 -1.05468,-0.0469 v -1.14843 q 0.57421,0.0703 1.00781,0.0703 1.72265,0 1.72265,-0.94922 0,-0.90234 -1.55859,-0.90234 -0.50391,0 -0.66797,0.0234 l 0.76172,-2.13281 h 1.25391 l -0.45703,1.17188 q 1.10156,0.0352 1.65234,0.5039 0.55078,0.48047 0.55078,1.28906 z"
       inkscape:connector-curvature="0" />
    <path
       d="m 434.23129,505.02832 v -2.01562 h 2.10938 v 2.01562 z m 0,15.375 v -12.67969 h 2.10938 v 12.67969 z"
       style="font-size:24px;font-family:Arial;fill:#000000"
       id="path158"
       inkscape:connector-curvature="0" />
    <path
       id="path160"
       style="font-size:24px;font-family:Arial;fill:#000000"
       d="m 447.62582,520.40332 v -8.03906 q 0,-1.25391 -0.24609,-1.94531 -0.24609,-0.69141 -0.78516,-0.9961 -0.53906,-0.30469 -1.58203,-0.30469 -1.52343,0 -2.40234,1.04297 -0.87891,1.04297 -0.87891,2.89453 v 7.34766 h -2.10937 v -9.97266 q 0,-2.21484 -0.0703,-2.70703 h 1.99218 q 0.0117,0.0586 0.0234,0.31641 0.0117,0.25781 0.0234,0.59766 0.0234,0.32812 0.0469,1.2539 h 0.0352 q 0.72656,-1.3125 1.67578,-1.85156 0.96094,-0.55078 2.37891,-0.55078 2.08593,0 3.04687,1.04297 0.97266,1.03125 0.97266,3.42187 v 8.44922 z"
       inkscape:connector-curvature="0" />
    <path
       d="m 434.23129,505.02832 v -2.01562 h 2.10938 v 2.01562 z m 0,15.375 v -12.67969 h 2.10938 v 12.67969 z"
       style="font-size:24px;font-family:Arial;fill:#000000"
       id="path162"
       inkscape:connector-curvature="0" />
    <path
       d="m 392.11411,520.6377 q -1.91016,0 -2.8711,-1.00782 -0.96094,-1.00781 -0.96094,-2.76562 0,-1.96875 1.28907,-3.02344 1.30078,-1.05469 4.18359,-1.125 l 2.84766,-0.0469 v -0.69141 q 0,-1.54688 -0.65625,-2.21484 -0.65625,-0.66797 -2.0625,-0.66797 -1.41797,0 -2.0625,0.48047 -0.64453,0.48046 -0.77344,1.53515 l -2.20313,-0.19922 q 0.53907,-3.42187 5.08594,-3.42187 2.39063,0 3.59766,1.10156 1.20703,1.08984 1.20703,3.16406 v 5.46094 q 0,0.9375 0.24609,1.41797 0.2461,0.46875 0.9375,0.46875 0.30469,0 0.69141,-0.082 v 1.3125 q -0.79688,0.1875 -1.62891,0.1875 -1.17187,0 -1.71093,-0.60938 -0.52735,-0.62109 -0.59766,-1.93359 h -0.0703 q -0.8086,1.45312 -1.88672,2.0625 -1.06641,0.59766 -2.60156,0.59766 z m 0.48046,-1.58204 q 1.16016,0 2.0625,-0.52734 0.90235,-0.52734 1.41797,-1.44141 0.52735,-0.92578 0.52735,-1.89843 v -1.04297 l -2.3086,0.0469 q -1.48828,0.0234 -2.26172,0.30469 -0.76171,0.28125 -1.17187,0.86719 -0.41016,0.58594 -0.41016,1.53515 0,1.03125 0.55078,1.59375 0.5625,0.5625 1.59375,0.5625 z"
       style="font-size:24px;font-family:Arial;fill:#000000"
       id="path164"
       inkscape:connector-curvature="0" />
    <path
       d="m 434.23129,505.02832 v -2.01562 h 2.10938 v 2.01562 z m 0,15.375 v -12.67969 h 2.10938 v 12.67969 z"
       style="font-size:24px;font-family:Arial;fill:#000000"
       id="path166"
       inkscape:connector-curvature="0" />
    <path
       d="m 447.62582,520.40332 v -8.03906 q 0,-1.25391 -0.24609,-1.94531 -0.24609,-0.69141 -0.78516,-0.9961 -0.53906,-0.30469 -1.58203,-0.30469 -1.52343,0 -2.40234,1.04297 -0.87891,1.04297 -0.87891,2.89453 v 7.34766 h -2.10937 v -9.97266 q 0,-2.21484 -0.0703,-2.70703 h 1.99218 q 0.0117,0.0586 0.0234,0.31641 0.0117,0.25781 0.0234,0.59766 0.0234,0.32812 0.0469,1.2539 h 0.0352 q 0.72656,-1.3125 1.67578,-1.85156 0.96094,-0.55078 2.37891,-0.55078 2.08593,0 3.04687,1.04297 0.97266,1.03125 0.97266,3.42187 v 8.44922 z"
       style="font-size:24px;font-family:Arial;fill:#000000"
       id="path168"
       inkscape:connector-curvature="0" />
    <path
       d="m 434.23129,505.02832 v -2.01562 h 2.10938 v 2.01562 z m 0,15.375 v -12.67969 h 2.10938 v 12.67969 z"
       style="font-size:24px;font-family:Arial;fill:#000000"
       id="path170"
       inkscape:connector-curvature="0" />
    <path
       d="m 434.23129,505.02832 v -2.01562 h 2.10938 v 2.01562 z m 0,15.375 v -12.67969 h 2.10938 v 12.67969 z"
       style="font-size:24px;font-family:Arial;fill:#000000"
       id="path172"
       inkscape:connector-curvature="0" />
    <path
       id="path174"
       style="font-size:24px;font-family:Arial;fill:#000000"
       d="m 463.64536,514.05176 q 0,3.32812 -1.46485,4.95703 -1.46484,1.62891 -4.2539,1.62891 -2.77735,0 -4.19532,-1.6875 -1.41797,-1.69922 -1.41797,-4.89844 0,-6.5625 5.6836,-6.5625 2.90625,0 4.27734,1.60547 1.3711,1.59375 1.3711,4.95703 z m -2.21485,0 q 0,-2.625 -0.78515,-3.8086 -0.77344,-1.19531 -2.61329,-1.19531 -1.85156,0 -2.68359,1.21875 -0.82031,1.20703 -0.82031,3.78516 0,2.50781 0.80859,3.77344 0.82031,1.2539 2.56641,1.2539 1.89844,0 2.70703,-1.21875 0.82031,-1.21875 0.82031,-3.80859 z"
       inkscape:connector-curvature="0" />
    <path
       id="path176"
       style="font-size:24px;font-family:Arial;fill:#000000"
       d="m 392.11411,520.6377 q -1.91016,0 -2.8711,-1.00782 -0.96094,-1.00781 -0.96094,-2.76562 0,-1.96875 1.28907,-3.02344 1.30078,-1.05469 4.18359,-1.125 l 2.84766,-0.0469 v -0.69141 q 0,-1.54688 -0.65625,-2.21484 -0.65625,-0.66797 -2.0625,-0.66797 -1.41797,0 -2.0625,0.48047 -0.64453,0.48046 -0.77344,1.53515 l -2.20313,-0.19922 q 0.53907,-3.42187 5.08594,-3.42187 2.39063,0 3.59766,1.10156 1.20703,1.08984 1.20703,3.16406 v 5.46094 q 0,0.9375 0.24609,1.41797 0.2461,0.46875 0.9375,0.46875 0.30469,0 0.69141,-0.082 v 1.3125 q -0.79688,0.1875 -1.62891,0.1875 -1.17187,0 -1.71093,-0.60938 -0.52735,-0.62109 -0.59766,-1.93359 h -0.0703 q -0.8086,1.45312 -1.88672,2.0625 -1.06641,0.59766 -2.60156,0.59766 z m 0.48046,-1.58204 q 1.16016,0 2.0625,-0.52734 0.90235,-0.52734 1.41797,-1.44141 0.52735,-0.92578 0.52735,-1.89843 v -1.04297 l -2.3086,0.0469 q -1.48828,0.0234 -2.26172,0.30469 -0.76171,0.28125 -1.17187,0.86719 -0.41016,0.58594 -0.41016,1.53515 0,1.03125 0.55078,1.59375 0.5625,0.5625 1.59375,0.5625 z"
       inkscape:connector-curvature="0" />
    <path
       id="path178"
       style="font-size:24px;font-family:Arial;fill:#000000"
       d="m 434.23129,505.02832 v -2.01562 h 2.10938 v 2.01562 z m 0,15.375 v -12.67969 h 2.10938 v 12.67969 z"
       inkscape:connector-curvature="0" />
    <path
       id="path180"
       style="font-size:24px;font-family:Arial;fill:#000000"
       d="m 392.11411,520.6377 q -1.91016,0 -2.8711,-1.00782 -0.96094,-1.00781 -0.96094,-2.76562 0,-1.96875 1.28907,-3.02344 1.30078,-1.05469 4.18359,-1.125 l 2.84766,-0.0469 v -0.69141 q 0,-1.54688 -0.65625,-2.21484 -0.65625,-0.66797 -2.0625,-0.66797 -1.41797,0 -2.0625,0.48047 -0.64453,0.48046 -0.77344,1.53515 l -2.20313,-0.19922 q 0.53907,-3.42187 5.08594,-3.42187 2.39063,0 3.59766,1.10156 1.20703,1.08984 1.20703,3.16406 v 5.46094 q 0,0.9375 0.24609,1.41797 0.2461,0.46875 0.9375,0.46875 0.30469,0 0.69141,-0.082 v 1.3125 q -0.79688,0.1875 -1.62891,0.1875 -1.17187,0 -1.71093,-0.60938 -0.52735,-0.62109 -0.59766,-1.93359 h -0.0703 q -0.8086,1.45312 -1.88672,2.0625 -1.06641,0.59766 -2.60156,0.59766 z m 0.48046,-1.58204 q 1.16016,0 2.0625,-0.52734 0.90235,-0.52734 1.41797,-1.44141 0.52735,-0.92578 0.52735,-1.89843 v -1.04297 l -2.3086,0.0469 q -1.48828,0.0234 -2.26172,0.30469 -0.76171,0.28125 -1.17187,0.86719 -0.41016,0.58594 -0.41016,1.53515 0,1.03125 0.55078,1.59375 0.5625,0.5625 1.59375,0.5625 z"
       inkscape:connector-curvature="0" />
    <path
       id="path182"
       style="font-size:24px;font-family:Arial;fill:#000000"
       d="m 434.23129,505.02832 v -2.01562 h 2.10938 v 2.01562 z m 0,15.375 v -12.67969 h 2.10938 v 12.67969 z"
       inkscape:connector-curvature="0" />
    <path
       d="m 463.64536,514.05176 q 0,3.32812 -1.46485,4.95703 -1.46484,1.62891 -4.2539,1.62891 -2.77735,0 -4.19532,-1.6875 -1.41797,-1.69922 -1.41797,-4.89844 0,-6.5625 5.6836,-6.5625 2.90625,0 4.27734,1.60547 1.3711,1.59375 1.3711,4.95703 z m -2.21485,0 q 0,-2.625 -0.78515,-3.8086 -0.77344,-1.19531 -2.61329,-1.19531 -1.85156,0 -2.68359,1.21875 -0.82031,1.20703 -0.82031,3.78516 0,2.50781 0.80859,3.77344 0.82031,1.2539 2.56641,1.2539 1.89844,0 2.70703,-1.21875 0.82031,-1.21875 0.82031,-3.80859 z"
       style="font-size:24px;font-family:Arial;fill:#000000"
       id="path184"
       inkscape:connector-curvature="0" />
    <path
       id="path186"
       style="font-size:24px;font-family:Arial;fill:#000000"
       d="m 434.23129,505.02832 v -2.01562 h 2.10938 v 2.01562 z m 0,15.375 v -12.67969 h 2.10938 v 12.67969 z"
       inkscape:connector-curvature="0" />
    <path
       d="m 447.62582,520.40332 v -8.03906 q 0,-1.25391 -0.24609,-1.94531 -0.24609,-0.69141 -0.78516,-0.9961 -0.53906,-0.30469 -1.58203,-0.30469 -1.52343,0 -2.40234,1.04297 -0.87891,1.04297 -0.87891,2.89453 v 7.34766 h -2.10937 v -9.97266 q 0,-2.21484 -0.0703,-2.70703 h 1.99218 q 0.0117,0.0586 0.0234,0.31641 0.0117,0.25781 0.0234,0.59766 0.0234,0.32812 0.0469,1.2539 h 0.0352 q 0.72656,-1.3125 1.67578,-1.85156 0.96094,-0.55078 2.37891,-0.55078 2.08593,0 3.04687,1.04297 0.97266,1.03125 0.97266,3.42187 v 8.44922 z"
       style="font-size:24px;font-family:Arial;fill:#000000"
       id="path188"
       inkscape:connector-curvature="0" />
    <path
       id="path190"
       style="font-size:24px;font-family:Arial;fill:#000000"
       d="m 434.23129,505.02832 v -2.01562 h 2.10938 v 2.01562 z m 0,15.375 v -12.67969 h 2.10938 v 12.67969 z"
       inkscape:connector-curvature="0" />
    <path
       d="m 434.23129,505.02832 v -2.01562 h 2.10938 v 2.01562 z m 0,15.375 v -12.67969 h 2.10938 v 12.67969 z"
       style="font-size:24px;font-family:Arial;fill:#000000"
       id="path192"
       inkscape:connector-curvature="0" />
    <path
       id="path194"
       style="font-size:24px;font-family:Arial;fill:#000000"
       d="m 474.03989,520.40332 -3.41016,-5.20312 -3.43359,5.20312 h -2.27344 l 4.51172,-6.51562 -4.30078,-6.16407 h 2.33203 l 3.16406,4.9336 3.14063,-4.9336 h 2.35546 l -4.30078,6.14063 4.57032,6.53906 z"
       inkscape:connector-curvature="0" />
    <path
       id="path196"
       style="font-size:24px;font-family:Arial;fill:#000000"
       d="m 434.23129,505.02832 v -2.01562 h 2.10938 v 2.01562 z m 0,15.375 v -12.67969 h 2.10938 v 12.67969 z"
       inkscape:connector-curvature="0" />
    <path
       id="path198"
       style="font-size:24px;font-family:Arial;fill:#000000"
       d="m 434.23129,505.02832 v -2.01562 h 2.10938 v 2.01562 z m 0,15.375 v -12.67969 h 2.10938 v 12.67969 z"
       inkscape:connector-curvature="0" />
    <path
       id="path200"
       style="font-size:24px;font-family:Arial;fill:#000000"
       d="m 447.62582,520.40332 v -8.03906 q 0,-1.25391 -0.24609,-1.94531 -0.24609,-0.69141 -0.78516,-0.9961 -0.53906,-0.30469 -1.58203,-0.30469 -1.52343,0 -2.40234,1.04297 -0.87891,1.04297 -0.87891,2.89453 v 7.34766 h -2.10937 v -9.97266 q 0,-2.21484 -0.0703,-2.70703 h 1.99218 q 0.0117,0.0586 0.0234,0.31641 0.0117,0.25781 0.0234,0.59766 0.0234,0.32812 0.0469,1.2539 h 0.0352 q 0.72656,-1.3125 1.67578,-1.85156 0.96094,-0.55078 2.37891,-0.55078 2.08593,0 3.04687,1.04297 0.97266,1.03125 0.97266,3.42187 v 8.44922 z"
       inkscape:connector-curvature="0" />
    <path
       d="m 463.64536,514.05176 q 0,3.32812 -1.46485,4.95703 -1.46484,1.62891 -4.2539,1.62891 -2.77735,0 -4.19532,-1.6875 -1.41797,-1.69922 -1.41797,-4.89844 0,-6.5625 5.6836,-6.5625 2.90625,0 4.27734,1.60547 1.3711,1.59375 1.3711,4.95703 z m -2.21485,0 q 0,-2.625 -0.78515,-3.8086 -0.77344,-1.19531 -2.61329,-1.19531 -1.85156,0 -2.68359,1.21875 -0.82031,1.20703 -0.82031,3.78516 0,2.50781 0.80859,3.77344 0.82031,1.2539 2.56641,1.2539 1.89844,0 2.70703,-1.21875 0.82031,-1.21875 0.82031,-3.80859 z"
       style="font-size:24px;font-family:Arial;fill:#000000"
       id="path202"
       inkscape:connector-curvature="0" />
    <path
       d="m 434.23129,505.02832 v -2.01562 h 2.10938 v 2.01562 z m 0,15.375 v -12.67969 h 2.10938 v 12.67969 z"
       style="font-size:24px;font-family:Arial;fill:#000000"
       id="path204"
       inkscape:connector-curvature="0" />
    <path
       d="m 434.23129,505.02832 v -2.01562 h 2.10938 v 2.01562 z m 0,15.375 v -12.67969 h 2.10938 v 12.67969 z"
       style="font-size:24px;font-family:Arial;fill:#000000"
       id="path206"
       inkscape:connector-curvature="0" />
    <path
       d="m 463.64536,514.05176 q 0,3.32812 -1.46485,4.95703 -1.46484,1.62891 -4.2539,1.62891 -2.77735,0 -4.19532,-1.6875 -1.41797,-1.69922 -1.41797,-4.89844 0,-6.5625 5.6836,-6.5625 2.90625,0 4.27734,1.60547 1.3711,1.59375 1.3711,4.95703 z m -2.21485,0 q 0,-2.625 -0.78515,-3.8086 -0.77344,-1.19531 -2.61329,-1.19531 -1.85156,0 -2.68359,1.21875 -0.82031,1.20703 -0.82031,3.78516 0,2.50781 0.80859,3.77344 0.82031,1.2539 2.56641,1.2539 1.89844,0 2.70703,-1.21875 0.82031,-1.21875 0.82031,-3.80859 z"
       style="font-size:24px;font-family:Arial;fill:#000000"
       id="path208"
       inkscape:connector-curvature="0" />
    <path
       id="path210"
       style="font-size:24px;font-family:Arial;fill:#000000"
       d="m 434.23129,505.02832 v -2.01562 h 2.10938 v 2.01562 z m 0,15.375 v -12.67969 h 2.10938 v 12.67969 z"
       inkscape:connector-curvature="0" />
    <path
       d="m 474.03989,520.40332 -3.41016,-5.20312 -3.43359,5.20312 h -2.27344 l 4.51172,-6.51562 -4.30078,-6.16407 h 2.33203 l 3.16406,4.9336 3.14063,-4.9336 h 2.35546 l -4.30078,6.14063 4.57032,6.53906 z"
       style="font-size:24px;font-family:Arial;fill:#000000"
       id="path212"
       inkscape:connector-curvature="0" />
    <path
       d="m 434.23129,505.02832 v -2.01562 h 2.10938 v 2.01562 z m 0,15.375 v -12.67969 h 2.10938 v 12.67969 z"
       style="font-size:24px;font-family:Arial;fill:#000000"
       id="path214"
       inkscape:connector-curvature="0" />
    <path
       id="path216"
       style="font-size:24px;font-family:Arial;fill:#000000"
       d="m 463.64536,514.05176 q 0,3.32812 -1.46485,4.95703 -1.46484,1.62891 -4.2539,1.62891 -2.77735,0 -4.19532,-1.6875 -1.41797,-1.69922 -1.41797,-4.89844 0,-6.5625 5.6836,-6.5625 2.90625,0 4.27734,1.60547 1.3711,1.59375 1.3711,4.95703 z m -2.21485,0 q 0,-2.625 -0.78515,-3.8086 -0.77344,-1.19531 -2.61329,-1.19531 -1.85156,0 -2.68359,1.21875 -0.82031,1.20703 -0.82031,3.78516 0,2.50781 0.80859,3.77344 0.82031,1.2539 2.56641,1.2539 1.89844,0 2.70703,-1.21875 0.82031,-1.21875 0.82031,-3.80859 z"
       inkscape:connector-curvature="0" />
    <path
       d="m 474.03989,520.40332 -3.41016,-5.20312 -3.43359,5.20312 h -2.27344 l 4.51172,-6.51562 -4.30078,-6.16407 h 2.33203 l 3.16406,4.9336 3.14063,-4.9336 h 2.35546 l -4.30078,6.14063 4.57032,6.53906 z"
       style="font-size:24px;font-family:Arial;fill:#000000"
       id="path218"
       inkscape:connector-curvature="0" />
    <path
       d="m 474.03989,520.40332 -3.41016,-5.20312 -3.43359,5.20312 h -2.27344 l 4.51172,-6.51562 -4.30078,-6.16407 h 2.33203 l 3.16406,4.9336 3.14063,-4.9336 h 2.35546 l -4.30078,6.14063 4.57032,6.53906 z"
       style="font-size:24px;font-family:Arial;fill:#000000"
       id="path220"
       inkscape:connector-curvature="0" />
    <path
       d="m 447.62582,520.40332 v -8.03906 q 0,-1.25391 -0.24609,-1.94531 -0.24609,-0.69141 -0.78516,-0.9961 -0.53906,-0.30469 -1.58203,-0.30469 -1.52343,0 -2.40234,1.04297 -0.87891,1.04297 -0.87891,2.89453 v 7.34766 h -2.10937 v -9.97266 q 0,-2.21484 -0.0703,-2.70703 h 1.99218 q 0.0117,0.0586 0.0234,0.31641 0.0117,0.25781 0.0234,0.59766 0.0234,0.32812 0.0469,1.2539 h 0.0352 q 0.72656,-1.3125 1.67578,-1.85156 0.96094,-0.55078 2.37891,-0.55078 2.08593,0 3.04687,1.04297 0.97266,1.03125 0.97266,3.42187 v 8.44922 z"
       style="font-size:24px;font-family:Arial;fill:#000000"
       id="path222"
       inkscape:connector-curvature="0" />
    <path
       id="path224"
       style="font-size:24px;font-family:Arial;fill:#000000"
       d="m 474.03989,520.40332 -3.41016,-5.20312 -3.43359,5.20312 h -2.27344 l 4.51172,-6.51562 -4.30078,-6.16407 h 2.33203 l 3.16406,4.9336 3.14063,-4.9336 h 2.35546 l -4.30078,6.14063 4.57032,6.53906 z"
       inkscape:connector-curvature="0" />
    <path
       d="m 474.03989,520.40332 -3.41016,-5.20312 -3.43359,5.20312 h -2.27344 l 4.51172,-6.51562 -4.30078,-6.16407 h 2.33203 l 3.16406,4.9336 3.14063,-4.9336 h 2.35546 l -4.30078,6.14063 4.57032,6.53906 z"
       style="font-size:24px;font-family:Arial;fill:#000000"
       id="path226"
       inkscape:connector-curvature="0" />
    <path
       d="m 463.64536,514.05176 q 0,3.32812 -1.46485,4.95703 -1.46484,1.62891 -4.2539,1.62891 -2.77735,0 -4.19532,-1.6875 -1.41797,-1.69922 -1.41797,-4.89844 0,-6.5625 5.6836,-6.5625 2.90625,0 4.27734,1.60547 1.3711,1.59375 1.3711,4.95703 z m -2.21485,0 q 0,-2.625 -0.78515,-3.8086 -0.77344,-1.19531 -2.61329,-1.19531 -1.85156,0 -2.68359,1.21875 -0.82031,1.20703 -0.82031,3.78516 0,2.50781 0.80859,3.77344 0.82031,1.2539 2.56641,1.2539 1.89844,0 2.70703,-1.21875 0.82031,-1.21875 0.82031,-3.80859 z"
       style="font-size:24px;font-family:Arial;fill:#000000"
       id="path228"
       inkscape:connector-curvature="0" />
    <path
       id="path230"
       style="font-size:24px;font-family:Arial;fill:#000000"
       d="m 474.03989,520.40332 -3.41016,-5.20312 -3.43359,5.20312 h -2.27344 l 4.51172,-6.51562 -4.30078,-6.16407 h 2.33203 l 3.16406,4.9336 3.14063,-4.9336 h 2.35546 l -4.30078,6.14063 4.57032,6.53906 z"
       inkscape:connector-curvature="0" />
    <path
       d="m 474.03989,520.40332 -3.41016,-5.20312 -3.43359,5.20312 h -2.27344 l 4.51172,-6.51562 -4.30078,-6.16407 h 2.33203 l 3.16406,4.9336 3.14063,-4.9336 h 2.35546 l -4.30078,6.14063 4.57032,6.53906 z"
       style="font-size:24px;font-family:Arial;fill:#000000"
       id="path232"
       inkscape:connector-curvature="0" />
    <path
       d="m 474.03989,520.40332 -3.41016,-5.20312 -3.43359,5.20312 h -2.27344 l 4.51172,-6.51562 -4.30078,-6.16407 h 2.33203 l 3.16406,4.9336 3.14063,-4.9336 h 2.35546 l -4.30078,6.14063 4.57032,6.53906 z"
       style="font-size:24px;font-family:Arial;fill:#000000"
       id="path234"
       inkscape:connector-curvature="0" />
    <path
       id="path236"
       style="font-size:24px;font-family:Arial;fill:#000000"
       d="m 474.03989,520.40332 -3.41016,-5.20312 -3.43359,5.20312 h -2.27344 l 4.51172,-6.51562 -4.30078,-6.16407 h 2.33203 l 3.16406,4.9336 3.14063,-4.9336 h 2.35546 l -4.30078,6.14063 4.57032,6.53906 z"
       inkscape:connector-curvature="0" />
    <path
       d="m 474.03989,520.40332 -3.41016,-5.20312 -3.43359,5.20312 h -2.27344 l 4.51172,-6.51562 -4.30078,-6.16407 h 2.33203 l 3.16406,4.9336 3.14063,-4.9336 h 2.35546 l -4.30078,6.14063 4.57032,6.53906 z"
       style="font-size:24px;font-family:Arial;fill:#000000"
       id="path238"
       inkscape:connector-curvature="0" />
    <path
       id="path240"
       style="font-size:24px;font-family:Arial;fill:#000000"
       d="m 474.03989,520.40332 -3.41016,-5.20312 -3.43359,5.20312 h -2.27344 l 4.51172,-6.51562 -4.30078,-6.16407 h 2.33203 l 3.16406,4.9336 3.14063,-4.9336 h 2.35546 l -4.30078,6.14063 4.57032,6.53906 z"
       inkscape:connector-curvature="0" />
    <path
       d="m 474.03989,520.40332 -3.41016,-5.20312 -3.43359,5.20312 h -2.27344 l 4.51172,-6.51562 -4.30078,-6.16407 h 2.33203 l 3.16406,4.9336 3.14063,-4.9336 h 2.35546 l -4.30078,6.14063 4.57032,6.53906 z"
       style="font-size:24px;font-family:Arial;fill:#000000"
       id="path242"
       inkscape:connector-curvature="0" />
    <path
       d="m 474.03989,520.40332 -3.41016,-5.20312 -3.43359,5.20312 h -2.27344 l 4.51172,-6.51562 -4.30078,-6.16407 h 2.33203 l 3.16406,4.9336 3.14063,-4.9336 h 2.35546 l -4.30078,6.14063 4.57032,6.53906 z"
       style="font-size:24px;font-family:Arial;fill:#000000"
       id="path244"
       inkscape:connector-curvature="0" />
    <path
       d="m 474.03989,520.40332 -3.41016,-5.20312 -3.43359,5.20312 h -2.27344 l 4.51172,-6.51562 -4.30078,-6.16407 h 2.33203 l 3.16406,4.9336 3.14063,-4.9336 h 2.35546 l -4.30078,6.14063 4.57032,6.53906 z"
       style="font-size:24px;font-family:Arial;fill:#000000"
       id="path246"
       inkscape:connector-curvature="0" />
    <path
       d="m 474.03989,520.40332 -3.41016,-5.20312 -3.43359,5.20312 h -2.27344 l 4.51172,-6.51562 -4.30078,-6.16407 h 2.33203 l 3.16406,4.9336 3.14063,-4.9336 h 2.35546 l -4.30078,6.14063 4.57032,6.53906 z"
       style="font-size:24px;font-family:Arial;fill:#000000"
       id="path248"
       inkscape:connector-curvature="0" />
    <path
       d="m 434.23129,505.02832 v -2.01562 h 2.10938 v 2.01562 z m 0,15.375 v -12.67969 h 2.10938 v 12.67969 z"
       style="font-size:24px;font-family:Arial;fill:#000000"
       id="path250"
       inkscape:connector-curvature="0" />
    <path
       id="path252"
       style="font-size:24px;font-family:Arial;fill:#000000"
       d="m 434.23129,505.02832 v -2.01562 h 2.10938 v 2.01562 z m 0,15.375 v -12.67969 h 2.10938 v 12.67969 z"
       inkscape:connector-curvature="0" />
    <path
       d="m 463.64536,514.05176 q 0,3.32812 -1.46485,4.95703 -1.46484,1.62891 -4.2539,1.62891 -2.77735,0 -4.19532,-1.6875 -1.41797,-1.69922 -1.41797,-4.89844 0,-6.5625 5.6836,-6.5625 2.90625,0 4.27734,1.60547 1.3711,1.59375 1.3711,4.95703 z m -2.21485,0 q 0,-2.625 -0.78515,-3.8086 -0.77344,-1.19531 -2.61329,-1.19531 -1.85156,0 -2.68359,1.21875 -0.82031,1.20703 -0.82031,3.78516 0,2.50781 0.80859,3.77344 0.82031,1.2539 2.56641,1.2539 1.89844,0 2.70703,-1.21875 0.82031,-1.21875 0.82031,-3.80859 z"
       style="font-size:24px;font-family:Arial;fill:#000000"
       id="path254"
       inkscape:connector-curvature="0" />
    <path
       d="m 474.03989,520.40332 -3.41016,-5.20312 -3.43359,5.20312 h -2.27344 l 4.51172,-6.51562 -4.30078,-6.16407 h 2.33203 l 3.16406,4.9336 3.14063,-4.9336 h 2.35546 l -4.30078,6.14063 4.57032,6.53906 z"
       style="font-size:24px;font-family:Arial;fill:#000000"
       id="path256"
       inkscape:connector-curvature="0" />
    <path
       id="path258"
       style="font-size:24px;font-family:Arial;fill:#000000"
       d="m 474.03989,520.40332 -3.41016,-5.20312 -3.43359,5.20312 h -2.27344 l 4.51172,-6.51562 -4.30078,-6.16407 h 2.33203 l 3.16406,4.9336 3.14063,-4.9336 h 2.35546 l -4.30078,6.14063 4.57032,6.53906 z"
       inkscape:connector-curvature="0" />
    <path
       d="m 474.03989,520.40332 -3.41016,-5.20312 -3.43359,5.20312 h -2.27344 l 4.51172,-6.51562 -4.30078,-6.16407 h 2.33203 l 3.16406,4.9336 3.14063,-4.9336 h 2.35546 l -4.30078,6.14063 4.57032,6.53906 z"
       style="font-size:24px;font-family:Arial;fill:#000000"
       id="path260"
       inkscape:connector-curvature="0" />
    <path
       id="path262"
       style="font-size:24px;font-family:Arial;fill:#000000"
       d="m 463.64536,514.05176 q 0,3.32812 -1.46485,4.95703 -1.46484,1.62891 -4.2539,1.62891 -2.77735,0 -4.19532,-1.6875 -1.41797,-1.69922 -1.41797,-4.89844 0,-6.5625 5.6836,-6.5625 2.90625,0 4.27734,1.60547 1.3711,1.59375 1.3711,4.95703 z m -2.21485,0 q 0,-2.625 -0.78515,-3.8086 -0.77344,-1.19531 -2.61329,-1.19531 -1.85156,0 -2.68359,1.21875 -0.82031,1.20703 -0.82031,3.78516 0,2.50781 0.80859,3.77344 0.82031,1.2539 2.56641,1.2539 1.89844,0 2.70703,-1.21875 0.82031,-1.21875 0.82031,-3.80859 z"
       inkscape:connector-curvature="0" />
    <path
       id="path264"
       style="font-size:24px;font-family:Arial;fill:#000000"
       d="m 434.23129,505.02832 v -2.01562 h 2.10938 v 2.01562 z m 0,15.375 v -12.67969 h 2.10938 v 12.67969 z"
       inkscape:connector-curvature="0" />
    <path
       id="path266"
       style="font-size:24px;font-family:Arial;fill:#000000"
       d="m 447.62582,520.40332 v -8.03906 q 0,-1.25391 -0.24609,-1.94531 -0.24609,-0.69141 -0.78516,-0.9961 -0.53906,-0.30469 -1.58203,-0.30469 -1.52343,0 -2.40234,1.04297 -0.87891,1.04297 -0.87891,2.89453 v 7.34766 h -2.10937 v -9.97266 q 0,-2.21484 -0.0703,-2.70703 h 1.99218 q 0.0117,0.0586 0.0234,0.31641 0.0117,0.25781 0.0234,0.59766 0.0234,0.32812 0.0469,1.2539 h 0.0352 q 0.72656,-1.3125 1.67578,-1.85156 0.96094,-0.55078 2.37891,-0.55078 2.08593,0 3.04687,1.04297 0.97266,1.03125 0.97266,3.42187 v 8.44922 z"
       inkscape:connector-curvature="0" />
    <path
       d="m 474.03989,520.40332 -3.41016,-5.20312 -3.43359,5.20312 h -2.27344 l 4.51172,-6.51562 -4.30078,-6.16407 h 2.33203 l 3.16406,4.9336 3.14063,-4.9336 h 2.35546 l -4.30078,6.14063 4.57032,6.53906 z"
       style="font-size:24px;font-family:Arial;fill:#000000"
       id="path268"
       inkscape:connector-curvature="0" />
    <path
       id="path270"
       style="font-size:24px;font-family:Arial;fill:#000000"
       d="m 463.64536,514.05176 q 0,3.32812 -1.46485,4.95703 -1.46484,1.62891 -4.2539,1.62891 -2.77735,0 -4.19532,-1.6875 -1.41797,-1.69922 -1.41797,-4.89844 0,-6.5625 5.6836,-6.5625 2.90625,0 4.27734,1.60547 1.3711,1.59375 1.3711,4.95703 z m -2.21485,0 q 0,-2.625 -0.78515,-3.8086 -0.77344,-1.19531 -2.61329,-1.19531 -1.85156,0 -2.68359,1.21875 -0.82031,1.20703 -0.82031,3.78516 0,2.50781 0.80859,3.77344 0.82031,1.2539 2.56641,1.2539 1.89844,0 2.70703,-1.21875 0.82031,-1.21875 0.82031,-3.80859 z"
       inkscape:connector-curvature="0" />
    <path
       id="path272"
       style="font-size:24px;font-family:Arial;fill:#000000"
       d="m 447.62582,520.40332 v -8.03906 q 0,-1.25391 -0.24609,-1.94531 -0.24609,-0.69141 -0.78516,-0.9961 -0.53906,-0.30469 -1.58203,-0.30469 -1.52343,0 -2.40234,1.04297 -0.87891,1.04297 -0.87891,2.89453 v 7.34766 h -2.10937 v -9.97266 q 0,-2.21484 -0.0703,-2.70703 h 1.99218 q 0.0117,0.0586 0.0234,0.31641 0.0117,0.25781 0.0234,0.59766 0.0234,0.32812 0.0469,1.2539 h 0.0352 q 0.72656,-1.3125 1.67578,-1.85156 0.96094,-0.55078 2.37891,-0.55078 2.08593,0 3.04687,1.04297 0.97266,1.03125 0.97266,3.42187 v 8.44922 z"
       inkscape:connector-curvature="0" />
    <path
       d="m 463.64536,514.05176 q 0,3.32812 -1.46485,4.95703 -1.46484,1.62891 -4.2539,1.62891 -2.77735,0 -4.19532,-1.6875 -1.41797,-1.69922 -1.41797,-4.89844 0,-6.5625 5.6836,-6.5625 2.90625,0 4.27734,1.60547 1.3711,1.59375 1.3711,4.95703 z m -2.21485,0 q 0,-2.625 -0.78515,-3.8086 -0.77344,-1.19531 -2.61329,-1.19531 -1.85156,0 -2.68359,1.21875 -0.82031,1.20703 -0.82031,3.78516 0,2.50781 0.80859,3.77344 0.82031,1.2539 2.56641,1.2539 1.89844,0 2.70703,-1.21875 0.82031,-1.21875 0.82031,-3.80859 z"
       style="font-size:24px;font-family:Arial;fill:#000000"
       id="path274"
       inkscape:connector-curvature="0" />
    <path
       d="m 434.23129,505.02832 v -2.01562 h 2.10938 v 2.01562 z m 0,15.375 v -12.67969 h 2.10938 v 12.67969 z"
       style="font-size:24px;font-family:Arial;fill:#000000"
       id="path276"
       inkscape:connector-curvature="0" />
    <path
       d="m 463.64536,514.05176 q 0,3.32812 -1.46485,4.95703 -1.46484,1.62891 -4.2539,1.62891 -2.77735,0 -4.19532,-1.6875 -1.41797,-1.69922 -1.41797,-4.89844 0,-6.5625 5.6836,-6.5625 2.90625,0 4.27734,1.60547 1.3711,1.59375 1.3711,4.95703 z m -2.21485,0 q 0,-2.625 -0.78515,-3.8086 -0.77344,-1.19531 -2.61329,-1.19531 -1.85156,0 -2.68359,1.21875 -0.82031,1.20703 -0.82031,3.78516 0,2.50781 0.80859,3.77344 0.82031,1.2539 2.56641,1.2539 1.89844,0 2.70703,-1.21875 0.82031,-1.21875 0.82031,-3.80859 z"
       style="font-size:24px;font-family:Arial;fill:#000000"
       id="path278"
       inkscape:connector-curvature="0" />
    <path
       id="path280"
       style="font-size:24px;font-family:Arial;fill:#000000"
       d="m 463.64536,514.05176 q 0,3.32812 -1.46485,4.95703 -1.46484,1.62891 -4.2539,1.62891 -2.77735,0 -4.19532,-1.6875 -1.41797,-1.69922 -1.41797,-4.89844 0,-6.5625 5.6836,-6.5625 2.90625,0 4.27734,1.60547 1.3711,1.59375 1.3711,4.95703 z m -2.21485,0 q 0,-2.625 -0.78515,-3.8086 -0.77344,-1.19531 -2.61329,-1.19531 -1.85156,0 -2.68359,1.21875 -0.82031,1.20703 -0.82031,3.78516 0,2.50781 0.80859,3.77344 0.82031,1.2539 2.56641,1.2539 1.89844,0 2.70703,-1.21875 0.82031,-1.21875 0.82031,-3.80859 z"
       inkscape:connector-curvature="0" />
    <path
       d="m 463.64536,514.05176 q 0,3.32812 -1.46485,4.95703 -1.46484,1.62891 -4.2539,1.62891 -2.77735,0 -4.19532,-1.6875 -1.41797,-1.69922 -1.41797,-4.89844 0,-6.5625 5.6836,-6.5625 2.90625,0 4.27734,1.60547 1.3711,1.59375 1.3711,4.95703 z m -2.21485,0 q 0,-2.625 -0.78515,-3.8086 -0.77344,-1.19531 -2.61329,-1.19531 -1.85156,0 -2.68359,1.21875 -0.82031,1.20703 -0.82031,3.78516 0,2.50781 0.80859,3.77344 0.82031,1.2539 2.56641,1.2539 1.89844,0 2.70703,-1.21875 0.82031,-1.21875 0.82031,-3.80859 z"
       style="font-size:24px;font-family:Arial;fill:#000000"
       id="path282"
       inkscape:connector-curvature="0" />
    <path
       id="path284"
       style="font-size:24px;font-family:Arial;fill:#000000"
       d="m 474.03989,520.40332 -3.41016,-5.20312 -3.43359,5.20312 h -2.27344 l 4.51172,-6.51562 -4.30078,-6.16407 h 2.33203 l 3.16406,4.9336 3.14063,-4.9336 h 2.35546 l -4.30078,6.14063 4.57032,6.53906 z"
       inkscape:connector-curvature="0" />
    <path
       id="path286"
       style="font-size:24px;font-family:Arial;fill:#000000"
       d="m 434.23129,505.02832 v -2.01562 h 2.10938 v 2.01562 z m 0,15.375 v -12.67969 h 2.10938 v 12.67969 z"
       inkscape:connector-curvature="0" />
    <path
       d="m 434.23129,505.02832 v -2.01562 h 2.10938 v 2.01562 z m 0,15.375 v -12.67969 h 2.10938 v 12.67969 z"
       style="font-size:24px;font-family:Arial;fill:#000000"
       id="path288"
       inkscape:connector-curvature="0" />
    <path
       d="m 434.23129,505.02832 v -2.01562 h 2.10938 v 2.01562 z m 0,15.375 v -12.67969 h 2.10938 v 12.67969 z"
       style="font-size:24px;font-family:Arial;fill:#000000"
       id="path290"
       inkscape:connector-curvature="0" />
    <path
       id="path292"
       style="font-size:24px;font-family:Arial;fill:#000000"
       d="m 474.03989,520.40332 -3.41016,-5.20312 -3.43359,5.20312 h -2.27344 l 4.51172,-6.51562 -4.30078,-6.16407 h 2.33203 l 3.16406,4.9336 3.14063,-4.9336 h 2.35546 l -4.30078,6.14063 4.57032,6.53906 z"
       inkscape:connector-curvature="0" />
    <path
       id="path294"
       style="font-size:24px;font-family:Arial;fill:#000000"
       d="m 434.23129,505.02832 v -2.01562 h 2.10938 v 2.01562 z m 0,15.375 v -12.67969 h 2.10938 v 12.67969 z"
       inkscape:connector-curvature="0" />
    <path
       d="m 434.23129,505.02832 v -2.01562 h 2.10938 v 2.01562 z m 0,15.375 v -12.67969 h 2.10938 v 12.67969 z"
       style="font-size:24px;font-family:Arial;fill:#000000"
       id="path296"
       inkscape:connector-curvature="0" />
    <path
       id="path298"
       style="font-size:24px;font-family:Arial;fill:#000000"
       d="m 474.03989,520.40332 -3.41016,-5.20312 -3.43359,5.20312 h -2.27344 l 4.51172,-6.51562 -4.30078,-6.16407 h 2.33203 l 3.16406,4.9336 3.14063,-4.9336 h 2.35546 l -4.30078,6.14063 4.57032,6.53906 z"
       inkscape:connector-curvature="0" />
    <path
       d="m 447.62582,520.40332 v -8.03906 q 0,-1.25391 -0.24609,-1.94531 -0.24609,-0.69141 -0.78516,-0.9961 -0.53906,-0.30469 -1.58203,-0.30469 -1.52343,0 -2.40234,1.04297 -0.87891,1.04297 -0.87891,2.89453 v 7.34766 h -2.10937 v -9.97266 q 0,-2.21484 -0.0703,-2.70703 h 1.99218 q 0.0117,0.0586 0.0234,0.31641 0.0117,0.25781 0.0234,0.59766 0.0234,0.32812 0.0469,1.2539 h 0.0352 q 0.72656,-1.3125 1.67578,-1.85156 0.96094,-0.55078 2.37891,-0.55078 2.08593,0 3.04687,1.04297 0.97266,1.03125 0.97266,3.42187 v 8.44922 z"
       style="font-size:24px;font-family:Arial;fill:#000000"
       id="path300"
       inkscape:connector-curvature="0" />
    <path
       d="m 474.03989,520.40332 -3.41016,-5.20312 -3.43359,5.20312 h -2.27344 l 4.51172,-6.51562 -4.30078,-6.16407 h 2.33203 l 3.16406,4.9336 3.14063,-4.9336 h 2.35546 l -4.30078,6.14063 4.57032,6.53906 z"
       style="font-size:24px;font-family:Arial;fill:#000000"
       id="path302"
       inkscape:connector-curvature="0" />
    <path
       id="path304"
       style="font-size:24px;font-family:Arial;fill:#000000"
       d="m 434.23129,505.02832 v -2.01562 h 2.10938 v 2.01562 z m 0,15.375 v -12.67969 h 2.10938 v 12.67969 z"
       inkscape:connector-curvature="0" />
    <path
       id="path306"
       style="font-size:24px;font-family:Arial;fill:#000000"
       d="m 434.23129,505.02832 v -2.01562 h 2.10938 v 2.01562 z m 0,15.375 v -12.67969 h 2.10938 v 12.67969 z"
       inkscape:connector-curvature="0" />
    <path
       d="m 403.83286,514.00488 q 0,2.53125 0.79687,3.75 0.79688,1.21875 2.40234,1.21875 1.125,0 1.875,-0.60937 0.76172,-0.60938 0.9375,-1.875 l 2.13282,0.14062 q -0.2461,1.82813 -1.5586,2.91797 -1.3125,1.08985 -3.32812,1.08985 -2.66016,0 -4.06641,-1.67579 -1.39453,-1.6875 -1.39453,-4.91015 0,-3.19922 1.40625,-4.875 1.40625,-1.6875 4.03125,-1.6875 1.94531,0 3.22266,1.00781 1.28906,1.00781 1.61718,2.77734 l -2.16796,0.16407 q -0.16407,-1.05469 -0.83204,-1.67578 -0.66796,-0.6211 -1.89843,-0.6211 -1.67578,0 -2.42578,1.11328 -0.75,1.11328 -0.75,3.75 z m 5.57812,9.36328 q 0,2.1211 -3.21094,2.1211 -0.66797,0 -1.05468,-0.0469 v -1.14843 q 0.57421,0.0703 1.00781,0.0703 1.72265,0 1.72265,-0.94922 0,-0.90234 -1.55859,-0.90234 -0.50391,0 -0.66797,0.0234 l 0.76172,-2.13281 h 1.25391 l -0.45703,1.17188 q 1.10156,0.0352 1.65234,0.5039 0.55078,0.48047 0.55078,1.28906 z"
       style="font-size:24px;font-family:Arial;fill:#000000"
       id="path308"
       inkscape:connector-curvature="0" />
  </g>
  <text
     x="-6.8753881"
     y="89.80098"
     id="text4"
     style="font-size:8.98009872px;stroke-width:0.74834156">
    <tspan
       font-size="91.5000"
       id="tspan2"
       style="font-style:normal;font-variant:normal;font-weight:normal;font-stretch:normal;font-size:143.68157959px;font-family:Uroob;-inkscape-font-specification:Uroob;fill:#000000;stroke-width:0.74834156">Serralheria</tspan>
  </text>
</svg>
